<?xml version="1.0" encoding="UTF-8" standalone="no"?>
<!-- Created with Inkscape (http://www.inkscape.org/) -->

<svg
   width="210mm"
   height="157.58958mm"
   viewBox="0 0 210 157.58958"
   version="1.1"
   id="svg1978"
   xml:space="preserve"
   inkscape:version="1.2.1 (9c6d41e410, 2022-07-14, custom)"
   sodipodi:docname="eng-icon.svg"
   xmlns:inkscape="http://www.inkscape.org/namespaces/inkscape"
   xmlns:sodipodi="http://sodipodi.sourceforge.net/DTD/sodipodi-0.dtd"
   xmlns="http://www.w3.org/2000/svg"
   xmlns:svg="http://www.w3.org/2000/svg"><sodipodi:namedview
     id="namedview1980"
     pagecolor="#505050"
     bordercolor="#eeeeee"
     borderopacity="1"
     inkscape:showpageshadow="0"
     inkscape:pageopacity="0"
     inkscape:pagecheckerboard="0"
     inkscape:deskcolor="#505050"
     inkscape:document-units="mm"
     showgrid="false"
     inkscape:zoom="0.49709596"
     inkscape:cx="82.479045"
     inkscape:cy="373.16739"
     inkscape:window-width="1366"
     inkscape:window-height="715"
     inkscape:window-x="0"
     inkscape:window-y="30"
     inkscape:window-maximized="1"
     inkscape:current-layer="layer1" /><defs
     id="defs1975" /><g
     inkscape:label="Слой 1"
     inkscape:groupmode="layer"
     id="layer1"
     transform="translate(-76.755432,63.765758)"><g
       id="g1994"
       transform="matrix(1.547175,0,0,1.7674008,40.114053,-283.17706)"><path
         style="fill:#f3f3f3;stroke-width:0.264583"
         d="m 31.091099,212.80081 c -0.825754,-0.23974 -0.953518,-0.34794 -0.581379,-0.49235 0.262324,-0.10179 11.440463,-7.30038 24.840307,-15.99688 l 24.363356,-15.81181 -4.282191,-0.0728 -4.282191,-0.0728 -22.398285,14.53899 c -18.389609,11.93691 -22.484611,14.49278 -22.880631,14.28084 -0.265292,-0.14198 -0.41874,-0.36106 -0.340997,-0.48685 0.07774,-0.1258 0.05131,-0.26865 -0.05874,-0.31746 -0.289827,-0.12855 -1.294882,-2.08765 -1.483662,-2.89204 -0.154465,-0.65817 0.60774,-1.19009 18.387701,-12.83229 L 60.923232,180.4997 42.369143,180.4318 23.815054,180.3639 v -2.24717 -2.24717 h 30.29479 30.29479 v 18.65312 18.65313 H 82.15568 79.906722 V 199.0206 c 0,-7.78536 -0.071,-14.15521 -0.157776,-14.15521 -0.08678,0 -9.820137,6.34008 -21.629687,14.08906 l -21.47191,14.08907 -2.248958,0.0323 c -1.236927,0.0178 -2.725208,-0.10598 -3.307292,-0.27499 z m 67.601039,-18.27813 v -18.65312 h 30.294792 30.29479 v 2.24717 2.24717 l -18.54642,0.0679 -18.54642,0.0679 18.54213,12.14187 c 17.82913,11.67499 18.53577,12.16842 18.37699,12.83229 -0.19522,0.81624 -0.79748,2.06105 -1.08117,2.23467 -0.11018,0.0674 -9.71932,-6.05674 -21.35366,-13.60926 l -21.15333,-13.73186 h -4.37542 -4.37543 l 1.31939,0.87825 c 0.72566,0.48304 11.46946,7.46119 23.87511,15.507 12.40565,8.04582 22.55573,14.72038 22.55573,14.83236 0,0.22448 -1.50309,0.90783 -1.66778,0.75822 -0.0566,-0.0514 -0.30109,0.0709 -0.54322,0.27183 -0.28331,0.23512 -1.35893,0.40463 -3.01723,0.47548 l -2.57698,0.11011 -21.43125,-14.06522 c -11.78719,-7.73587 -21.58008,-14.12406 -21.76198,-14.19598 -0.26209,-0.10362 -0.33073,2.8126 -0.33073,14.05276 v 14.18352 h -2.24895 -2.248962 z m -74.87708,-35.18779 v -2.24717 l 18.554089,-0.0679 18.554089,-0.0679 -18.557181,-12.15112 c -20.093822,-13.1573 -18.70123,-12.07431 -17.971991,-13.97648 0.378109,-0.98627 -1.664509,-2.20539 21.38141,12.76127 l 20.76979,13.48849 4.299479,0.005 c 2.364714,0.003 4.299479,-0.0284 4.299479,-0.0694 0,-0.041 -10.641811,-6.97635 -23.648465,-15.41198 -13.006657,-8.43561 -23.594992,-15.42872 -23.529634,-15.54024 0.06536,-0.11151 0.229668,-0.13425 0.365134,-0.0505 0.135465,0.0837 0.246301,0.0342 0.246301,-0.11014 0,-0.26312 1.016863,-0.71336 1.389062,-0.61504 0.109141,0.0288 0.198438,-0.0525 0.198438,-0.18075 0,-0.40952 2.181208,-0.77619 4.365624,-0.73387 l 2.116667,0.041 21.47191,14.08907 c 11.80955,7.74898 21.542909,14.08906 21.629687,14.08906 0.08678,0 0.157776,-6.36985 0.157776,-14.15521 v -14.15521 h 2.248958 2.248958 v 18.65313 18.65312 h -30.29479 -30.29479 z m 74.87708,-16.40595 v -18.65313 h 2.248962 2.24895 v 14.18352 c 0,11.24016 0.0686,14.15638 0.33073,14.05276 0.1819,-0.0719 9.97479,-6.46011 21.76198,-14.19598 l 21.43125,-14.06522 2.599,0.11115 c 2.60583,0.11144 3.42816,0.37629 2.77003,0.89213 -0.18807,0.14741 -11.05757,7.2089 -24.15445,15.69221 -13.09687,8.48331 -23.98684,15.58475 -24.19992,15.78098 -0.32641,0.30059 0.28401,0.35678 3.87568,0.35678 h 4.2631 l 22.44849,-14.57633 c 21.37171,-13.87715 23.44639,-15.12288 23.12676,-13.88635 -0.032,0.12397 0.0412,0.29824 0.16277,0.38727 0.33706,0.24684 1.32289,2.1909 1.50557,2.96896 0.15571,0.6632 -0.56877,1.16901 -18.38003,12.83229 l -18.54213,12.14187 18.54642,0.0679 18.54642,0.0679 v 2.24717 2.24717 H 128.98693 98.692138 Z"
         id="path2008" /><path
         style="fill:#f8a0a5;stroke-width:0.264583"
         d="m 84.468956,194.58995 -0.06432,-18.71816 -30.360936,-0.0684 -30.360936,-0.0684 30.369239,-0.065 c 24.099715,-0.0516 30.395319,0.003 30.495564,0.26571 0.06947,0.1819 0.09468,8.6651 0.05601,18.85156 l -0.07031,18.52083 z m 14.088189,-0.0673 0.0027,-18.78541 30.360945,-0.002 30.36094,-0.002 -30.29302,0.069 -30.293025,0.0689 -0.07062,18.71815 -0.07062,18.71816 0.0027,-18.78542 z m -44.449077,-32.87391 30.293022,-0.0689 0.07062,-18.71816 0.07062,-18.71815 -0.0027,18.78542 -0.0027,18.78541 -30.360944,0.002 -30.360945,0.002 z m 44.441139,-0.13286 c -0.06947,-0.1819 -0.09468,-8.6651 -0.05601,-18.85156 l 0.07031,-18.52083 0.06432,18.71815 0.06432,18.71816 30.360933,0.0684 30.36094,0.0684 -30.36924,0.065 c -24.09971,0.0516 -30.395319,-0.003 -30.495564,-0.26571 z"
         id="path2006" /><path
         style="fill:#f87b83;stroke-width:0.264583"
         d="m 88.042659,212.97806 c 1.928151,-0.0452 5.083307,-0.0452 7.011458,0 1.928151,0.0452 0.350573,0.0822 -3.505729,0.0822 -3.856302,0 -5.43388,-0.037 -3.505729,-0.0822 z m 68.064061,-2.84496 c 0.34177,-0.3638 0.68094,-0.66146 0.7537,-0.66146 0.0728,0 -0.14734,0.29766 -0.48912,0.66146 -0.34177,0.3638 -0.68094,0.66146 -0.7537,0.66146 -0.0728,0 0.14734,-0.29766 0.48912,-0.66146 z M 26.691726,210.0669 c -0.329108,-0.41964 -0.31975,-0.429 0.09989,-0.0999 0.254662,0.19972 0.463021,0.40808 0.463021,0.46302 0,0.21776 -0.217272,0.0776 -0.562915,-0.36313 z m -0.09854,-82.61614 c 0.263389,-0.29104 0.53842,-0.52916 0.611181,-0.52916 0.07276,0 -0.08321,0.23812 -0.346598,0.52916 -0.263389,0.29104 -0.53842,0.52917 -0.611181,0.52917 -0.07276,0 0.08321,-0.23813 0.346598,-0.52917 z m 129.356104,-0.33073 -0.50403,-0.59531 0.59531,0.50403 c 0.55945,0.47366 0.71576,0.6866 0.50403,0.6866 -0.0502,0 -0.3181,-0.2679 -0.59531,-0.59532 z M 88.042662,124.3426 c 1.928151,-0.0452 5.083307,-0.0452 7.011458,0 1.928151,0.0452 0.350573,0.0822 -3.505729,0.0822 -3.856302,0 -5.43388,-0.037 -3.505729,-0.0822 z"
         id="path2004" /><path
         style="fill:#fd4a54;stroke-width:0.264583"
         d="M 84.669222,194.2581 V 175.60498 H 54.24214 23.815058 v -6.87917 -6.87917 H 54.24214 84.669222 V 143.19352 124.5404 h 6.879166 6.879166 v 18.65312 18.65312 h 30.427086 30.42708 v 6.87917 6.87917 H 128.85464 98.427554 v 18.65312 18.65312 h -6.879166 -6.879166 z m -55.562498,17.46601 c -0.654843,-0.33895 -1.523669,-0.96704 -1.930722,-1.39575 l -0.740098,-0.77946 22.4897,-14.59767 22.4897,-14.59767 4.017888,0.0731 4.017886,0.0731 -24.047698,15.59599 c -13.226233,8.5778 -24.285822,15.74194 -24.576864,15.92031 -0.441916,0.27084 -0.72548,0.22269 -1.719792,-0.29196 z M 131.27293,196.12526 c -12.84578,-8.33711 -23.49084,-15.29324 -23.65567,-15.45808 -0.22322,-0.22322 0.71414,-0.2997 3.67283,-0.2997 h 3.97254 l 21.13677,13.7197 c 11.62523,7.54584 21.18027,13.8502 21.23343,14.00969 0.1038,0.31138 -1.87606,2.58316 -2.57917,2.95945 -0.31946,0.17097 -6.21482,-3.53052 -23.78073,-14.93106 z M 46.551702,143.91611 c -11.14198,-7.2369 -20.533903,-13.34182 -20.87094,-13.56648 -0.76289,-0.50851 -0.394061,-1.39728 1.221343,-2.94308 l 1.013994,-0.97029 23.399622,15.19769 c 12.869793,8.35874 23.456433,15.25452 23.525868,15.32395 0.06943,0.0694 -1.709303,0.12399 -3.952748,0.12123 l -4.078993,-0.005 z m 57.441548,12.81117 c 0.21309,-0.19627 11.25758,-7.40388 24.54332,-16.01691 l 24.15589,-15.66005 1.291,0.70265 c 0.71005,0.38646 1.59361,1.01851 1.96346,1.40455 l 0.67247,0.70191 -15.53602,10.08673 c -8.54482,5.54771 -18.67465,12.12327 -22.51074,14.61236 l -6.97471,4.52562 h -3.99605 c -3.36801,0 -3.93515,-0.0561 -3.60862,-0.35686 z"
         id="path2002" /><path
         style="fill:#7175b3;stroke-width:0.264583"
         d="m 36.829899,213.03735 c 0.174959,-0.17495 42.860743,-0.16582 43.035775,0.009 0.07108,0.0711 -9.614039,0.12925 -21.522493,0.12925 -11.908454,0 -21.589431,-0.0623 -21.513282,-0.13846 z m 66.401201,0.009 c 0.17503,-0.17503 42.86082,-0.18417 43.03578,-0.009 0.0761,0.0761 -9.60483,0.13846 -21.51329,0.13846 -11.90845,0 -21.59357,-0.0582 -21.52249,-0.12924 z m -66.360129,-88.5721 c -0.06741,-0.10914 9.617826,-0.17054 21.52274,-0.13645 11.904916,0.0341 18.19249,0.0934 13.972386,0.13188 -20.031256,0.18244 -35.384048,0.18441 -35.495126,0.005 z m 87.618039,0.0662 -21.43125,-0.13699 21.6453,-0.0638 c 14.37898,-0.0424 21.59041,0.025 21.48178,0.20079 -0.0899,0.14552 -0.18626,0.23587 -0.21405,0.20078 -0.0278,-0.0351 -9.69459,-0.12544 -21.48178,-0.20078 z"
         id="path2000" /><path
         style="fill:#575da6;stroke-width:0.264583"
         d="m 79.765413,198.88831 c 0,-7.78537 0.03374,-10.97029 0.07498,-7.07761 0.04124,3.89269 0.04124,10.26253 0,14.15521 -0.04124,3.89268 -0.07498,0.70776 -0.07498,-7.0776 z m 23.547917,0 c 0,-7.78537 0.0337,-10.97029 0.075,-7.07761 0.0412,3.89269 0.0412,10.26253 0,14.15521 -0.0412,3.89268 -0.075,0.70776 -0.075,-7.0776 z m -61.374315,-18.25625 -18.256249,-0.13777 18.470302,-0.0634 c 12.262197,-0.0421 18.415338,0.0255 18.30678,0.20118 -0.08994,0.14552 -0.186262,0.23605 -0.214053,0.20118 -0.02779,-0.0349 -8.265843,-0.12541 -18.30678,-0.20118 z m 80.656925,-0.0661 c -0.0674,-0.10914 8.1891,-0.17085 18.34777,-0.13713 10.15866,0.0337 15.55327,0.093 11.98801,0.1318 -16.82118,0.18294 -30.22465,0.18529 -30.33578,0.005 z M 23.855616,156.95539 c 0.175375,-0.17537 36.509993,-0.18597 36.685266,-0.0107 0.0767,0.0767 -8.17508,0.13945 -18.337283,0.13945 -10.162205,0 -18.418797,-0.0579 -18.347983,-0.12875 z m 98.700274,-0.0107 c 0.17528,-0.17527 36.50989,-0.16467 36.68527,0.0107 0.0708,0.0708 -8.18578,0.12873 -18.34798,0.12873 -10.16221,0 -18.41398,-0.0627 -18.33729,-0.13945 z M 79.765413,138.56331 c 0,-7.78536 0.03374,-10.97028 0.07498,-7.0776 0.04124,3.89268 0.04124,10.26252 0,14.15521 -0.04124,3.89268 -0.07498,0.70776 -0.07498,-7.07761 z m 23.547917,0 c 0,-7.78536 0.0337,-10.97028 0.075,-7.0776 0.0412,3.89268 0.0412,10.26252 0,14.15521 -0.0412,3.89268 -0.075,0.70776 -0.075,-7.07761 z"
         id="path1998" /><path
         style="fill:#40469a;stroke-width:0.264583"
         d="m 38.530337,212.00426 c 1.457211,-0.98134 40.235658,-26.3753 40.781072,-26.70537 0.262927,-0.15911 0.33073,2.65075 0.33073,13.70609 v 13.90624 h -21.22928 -21.22928 z m 64.924303,-12.99928 c 0,-11.05264 0.0679,-13.8662 0.33073,-13.71116 0.54866,0.32362 36.91456,24.13346 39.61933,25.93997 l 2.51152,1.67743 h -21.23079 -21.23079 z m -79.473369,4.617 c -0.09142,-0.45709 -0.166213,-5.81681 -0.166213,-11.91049 v -11.07943 h 18.176874 c 10.999708,0 18.077626,0.0956 17.92552,0.24211 -0.138245,0.13316 -8.109479,5.3856 -17.713853,11.67208 -9.604375,6.28649 -17.596063,11.53726 -17.759307,11.66839 -0.202695,0.16281 -0.34951,-0.0251 -0.463021,-0.59266 z M 141.11196,192.68003 c -9.77509,-6.4081 -17.86141,-11.74039 -17.96962,-11.84953 -0.1082,-0.10914 7.97889,-0.19844 17.97132,-0.19844 h 18.16806 l -0.0264,11.31094 c -0.0145,6.22101 -0.1038,11.5533 -0.19844,11.84953 -0.15324,0.47969 -2.11611,-0.73583 -17.94494,-11.1125 z M 23.841432,145.50862 c 0.0145,-6.22101 0.103802,-11.5569 0.198437,-11.85753 0.145284,-0.46153 34.474823,21.49298 35.917482,22.97003 0.106598,0.10914 -7.981809,0.19844 -17.974238,0.19844 H 23.815058 Z m 99.337888,11.0722 c 0.13825,-0.13131 8.24661,-5.47322 18.01858,-11.87091 l 17.76722,-11.63217 0.1583,0.79148 c 0.0871,0.43532 0.1583,5.77723 0.1583,11.87091 v 11.07943 h -18.17688 c -10.81543,0 -18.07507,-0.0967 -17.92552,-0.23874 z m -64.767093,-18.08997 -21.09762,-13.81816 21.073979,-0.0677 c 11.590687,-0.0373 21.115453,-0.0263 21.166147,0.0244 0.05069,0.0507 0.06133,6.29935 0.02363,13.8859 l -0.06851,13.79373 z m 45.042413,-0.0442 V 124.5404 h 21.23079 21.23079 l -2.51152,1.67743 c -2.70477,1.80651 -39.07067,25.61635 -39.61933,25.93997 -0.26287,0.15504 -0.33073,-2.65852 -0.33073,-13.71116 z"
         id="path1996" /></g></g></svg>
