<?xml version="1.0" encoding="UTF-8" standalone="no"?>
<!-- Created with Inkscape (http://www.inkscape.org/) -->

<svg
   width="135.23593mm"
   height="133.79648mm"
   viewBox="0 0 135.23594 133.79648"
   version="1.1"
   id="svg5"
   xml:space="preserve"
   inkscape:version="1.2.1 (9c6d41e410, 2022-07-14, custom)"
   sodipodi:docname="github-logo.svg"
   xmlns:inkscape="http://www.inkscape.org/namespaces/inkscape"
   xmlns:sodipodi="http://sodipodi.sourceforge.net/DTD/sodipodi-0.dtd"
   xmlns="http://www.w3.org/2000/svg"
   xmlns:svg="http://www.w3.org/2000/svg"><sodipodi:namedview
     id="namedview7"
     pagecolor="#505050"
     bordercolor="#eeeeee"
     borderopacity="1"
     inkscape:showpageshadow="0"
     inkscape:pageopacity="0"
     inkscape:pagecheckerboard="0"
     inkscape:deskcolor="#505050"
     inkscape:document-units="mm"
     showgrid="false"
     inkscape:zoom="0.49709596"
     inkscape:cx="600.48768"
     inkscape:cy="417.42443"
     inkscape:window-width="1366"
     inkscape:window-height="715"
     inkscape:window-x="0"
     inkscape:window-y="30"
     inkscape:window-maximized="1"
     inkscape:current-layer="layer1" /><defs
     id="defs2" /><g
     inkscape:label="Слой 1"
     inkscape:groupmode="layer"
     id="layer1"
     transform="translate(-37.328123,-82.317654)"><g
       id="g3397"
       transform="translate(-0.02299975,-0.04984891)"><path
         style="fill:#464646;stroke-width:0.264583"
         d="m 68.553648,216.04382 c 0.400182,-0.0606 1.055026,-0.0606 1.455208,0 0.400182,0.0606 0.07276,0.11022 -0.727604,0.11022 -0.800365,0 -1.127787,-0.0496 -0.727604,-0.11022 z m 73.030032,0.006 c 0.25743,-0.0671 0.61462,-0.0627 0.79375,0.01 0.17913,0.0725 -0.0315,0.12737 -0.46806,0.12197 -0.43656,-0.005 -0.58312,-0.0647 -0.32569,-0.13177 z m -77.461803,-0.51835 c -8.786558,-1.86901 -16.626958,-7.29402 -21.546573,-14.90873 -2.84417,-4.40227 -5.366616,-11.84004 -4.860462,-14.3317 0.153247,-0.7544 0.226463,-0.55683 0.506637,1.36712 1.491662,10.24325 8.529977,19.83243 18.049817,24.59153 2.482231,1.2409 6.876176,2.63675 9.503973,3.01919 1.987568,0.28927 2.188937,0.36265 1.422389,0.51834 -1.047951,0.21283 -0.760576,0.23673 -3.075781,-0.25575 z m 79.771873,0.22632 c 0,-0.13555 0.50601,-0.31658 1.12448,-0.4023 3.60763,-0.49997 8.96712,-2.70273 12.76976,-5.24838 2.72961,-1.82733 7.02466,-6.12784 8.8117,-8.82291 2.51088,-3.78672 4.38421,-8.21657 5.12411,-12.11697 0.18505,-0.97551 0.42539,-1.77365 0.53409,-1.77365 0.43912,0 -0.84701,5.22094 -1.9226,7.80461 -3.19462,7.67383 -9.08485,13.95551 -16.6111,17.71502 -2.17657,1.08723 -5.90899,2.36745 -7.71378,2.6458 -0.65484,0.101 -1.39898,0.2425 -1.65364,0.31443 -0.25466,0.0719 -0.46302,0.0199 -0.46302,-0.11565 z M 86.609848,191.78864 c -1.52944,-0.47936 -5.11293,-2.39057 -7.621092,-4.06462 -3.155392,-2.10604 -5.436098,-4.03725 -8.193498,-6.93789 -11.163591,-11.74355 -15.40596,-28.13497 -11.410599,-44.08764 0.382795,-1.52843 0.641797,-2.83315 0.575559,-2.89938 -0.22711,-0.22712 -5.783433,5.24598 -7.909357,7.79088 -7.848706,9.39552 -13.061999,21.53466 -14.379994,33.48377 -0.305862,2.773 -0.346086,-1.32189 -0.306515,-31.20397 l 0.04555,-34.39583 0.721039,-2.72431 C 41.527977,93.914582 50.624797,84.864705 63.387938,81.622988 l 2.850606,-0.724026 h 37.967706 c 20.88224,0 38.68208,0.08926 39.55521,0.198364 10.70132,1.337175 20.89798,8.843849 25.68023,18.905524 1.78667,3.75908 3.18508,9.02425 2.84347,10.70594 -0.15232,0.74981 -0.22959,0.53517 -0.51611,-1.43352 -0.38244,-2.6278 -1.77829,-7.02174 -3.01919,-9.503974 -3.86144,-7.724217 -11.07519,-14.029346 -19.13153,-16.72178 -2.71262,-0.906561 -3.5612,-0.909723 -1.86138,-0.0069 6.94325,3.687611 11.04683,11.689814 9.89415,19.294114 -1.14472,7.55176 -5.95588,13.24137 -13.12774,15.52467 -1.50817,0.48016 -2.74307,0.97494 -2.74421,1.09953 -10e-4,0.12458 0.33971,0.66036 0.75743,1.19062 3.70667,4.70528 6.79276,11.37465 8.40602,18.16628 0.71903,3.02705 0.75313,3.45854 0.75226,9.52075 -7.9e-4,5.56251 -0.0759,6.72189 -0.60595,9.34873 -2.61938,12.98223 -10.31739,24.25528 -21.15189,30.97505 -2.81628,1.74672 -6.11898,3.38503 -7.25269,3.59771 -2.14266,0.40197 -4.7669,-1.32724 -5.09656,-3.35831 -0.0782,-0.48162 -0.1816,-4.03084 -0.22982,-7.88714 -0.0827,-6.61222 -0.12298,-7.10185 -0.70744,-8.59896 -0.77745,-1.99147 -1.11496,-2.54064 -2.72881,-4.44014 -1.58516,-1.86573 -1.44967,-2.17179 1.0738,-2.42549 2.84919,-0.28645 5.04999,-0.90544 7.59929,-2.13737 4.19087,-2.02521 7.37137,-5.15148 9.41376,-9.25325 1.37361,-2.75864 1.79924,-4.42053 1.999,-7.8052 0.27773,-4.70579 -0.5269,-8.18151 -2.82242,-12.19201 l -1.29938,-2.27013 0.2824,-1.69862 c 0.48628,-2.92493 -0.26392,-8.70824 -1.27447,-9.82489 -0.55436,-0.61256 -1.21333,-0.59591 -3.42675,0.0866 -2.17931,0.672 -4.01113,1.56474 -5.748,2.8013 l -1.28836,0.91725 H 105 91.569431 l -1.288363,-0.91663 c -3.175984,-2.25961 -3.988881,-2.38935 -7.828705,-1.24943 -1.810869,0.53759 -2.06271,0.6923 -2.325029,1.42837 -0.455213,1.27731 -0.620442,5.15061 -0.293878,6.889 l 0.294109,1.56561 -1.171578,2.00626 c -2.364544,4.04916 -3.220461,7.47512 -2.977002,11.91601 0.184992,3.37439 0.668282,5.27397 2.068431,8.12999 3.095011,6.31317 9.497004,10.73901 16.414783,11.34789 2.625691,0.23111 2.864885,0.31446 2.864885,0.99838 0,0.33566 -0.314603,0.89894 -0.699117,1.25173 -1.112985,1.02115 -2.699168,3.63323 -3.184858,5.24473 -0.245684,0.81517 -0.626144,1.63095 -0.845473,1.81285 -0.538978,0.447 -3.224985,0.41248 -5.26129,-0.0676 -2.857434,-0.67371 -4.728625,-1.80789 -7.207178,-4.36847 -2.493806,-2.57633 -3.868108,-3.4085 -5.990846,-3.62759 -1.141434,-0.1178 -1.530036,-0.0524 -1.950612,0.3282 -1.066908,0.96554 -0.365038,2.76722 1.083125,2.78035 1.492684,0.0135 2.803091,0.94824 4.170672,2.97491 3.16044,4.68357 8.275536,7.58034 13.416515,7.59802 0.73488,0.003 1.47902,0.14747 1.653645,0.32209 0.218424,0.21843 0.315688,1.51879 0.31169,4.16719 -0.0048,3.16149 -0.09264,4.04084 -0.491516,4.91897 -0.592733,1.30489 -1.832748,2.39 -3.14891,2.75553 -1.186156,0.32943 -1.236109,0.32765 -2.573083,-0.0914 z m 3.753151,-0.9875 c 0.462616,-0.28431 1.091057,-1.03322 1.396529,-1.66425 0.498293,-1.02933 0.547839,-1.53847 0.481796,-4.95096 l -0.07362,-3.80364 -1.989283,-0.16186 c -5.41691,-0.44075 -9.723122,-2.92572 -12.881967,-7.43372 -1.684025,-2.40329 -2.139058,-2.76225 -3.924323,-3.09577 -2.193907,-0.40987 -2.969749,-2.2278 -1.554676,-3.64287 0.620355,-0.62035 0.826617,-0.6712 2.212819,-0.5455 2.472682,0.22421 3.778932,0.97785 6.461955,3.72818 1.840831,1.88702 2.823975,2.66908 4.13485,3.28916 1.938018,0.91673 4.547127,1.45444 6.45758,1.33084 l 1.283723,-0.083 0.579763,-1.71979 c 0.644102,-1.91065 1.480619,-3.3155 2.906776,-4.88164 0.52347,-0.57485 0.910341,-1.17016 0.859716,-1.32292 -0.05062,-0.15275 -0.968407,-0.36608 -2.039519,-0.47405 -7.535042,-0.75957 -13.776594,-5.04056 -17.07271,-11.70994 -1.720495,-3.48126 -2.094648,-5.15799 -2.095915,-9.3927 -7.94e-4,-2.91726 0.107947,-3.95006 0.59377,-5.63541 0.594783,-2.06335 1.692571,-4.4757 2.845487,-6.25288 0.563153,-0.86807 0.59081,-1.0717 0.343837,-2.5315 -0.477986,-2.82528 0.09466,-7.71803 1.151459,-9.83828 0.555731,-1.11496 1.595839,-1.28379 3.867623,-0.62777 2.437747,0.70394 4.801497,1.79808 6.337395,2.93348 l 1.124191,0.83105 h 13.186135 13.18615 l 1.83322,-1.18591 c 2.14018,-1.38447 4.59442,-2.43172 6.7348,-2.87381 1.32387,-0.27344 1.6081,-0.25668 2.19763,0.1296 1.34491,0.88122 2.32462,6.20699 1.84181,10.01225 -0.26522,2.09036 -0.24841,2.25673 0.31832,3.15089 2.13293,3.36524 3.25518,6.78445 3.48616,10.62147 0.49628,8.24423 -3.55629,15.69118 -10.81087,19.86596 -1.97171,1.13465 -5.80863,2.30138 -8.16622,2.48319 -1.17086,0.0903 -2.19768,0.27555 -2.28181,0.41169 -0.0841,0.13614 0.20268,0.6242 0.63737,1.08457 1.30036,1.37714 2.39107,3.05131 3.01978,4.63517 0.55157,1.38955 0.60283,2.02771 0.7362,9.16644 0.13298,7.11808 0.18265,7.73982 0.68682,8.59806 0.80121,1.36388 2.06819,2.11757 3.55972,2.11757 0.98186,0 1.83262,-0.29766 4.00364,-1.40077 20.46134,-10.39651 30.33305,-34.1752 23.23945,-55.97851 -5.21543,-16.03048 -18.70581,-27.92985 -35.4913,-31.30558 -2.55957,-0.51476 -3.83177,-0.60373 -8.68726,-0.60754 -4.89064,-0.004 -6.107154,0.0804 -8.672922,0.60033 -4.35742,0.88305 -8.460718,2.30143 -12.361457,4.27296 -13.286705,6.71545 -22.078658,18.59568 -24.915488,33.66733 -0.650181,3.45432 -0.652297,12.3137 -0.0038,15.75687 2.434876,12.92716 9.552541,23.78723 20.289043,30.95685 1.954626,1.30526 6.380851,3.64847 7.672917,4.06198 0.902038,0.28869 2.341112,0.0376 3.354665,-0.58528 z m 82.157331,-5.39177 c 0.005,-0.43656 0.0647,-0.58312 0.13177,-0.32569 0.0671,0.25743 0.0627,0.61462 -0.01,0.79375 -0.0725,0.17913 -0.12736,-0.0315 -0.12197,-0.46806 z M 37.342345,184.35104 c 0.002,-0.7276 0.05337,-0.99386 0.114185,-0.59167 0.06082,0.40218 0.05919,0.99749 -0.0036,1.32291 -0.0628,0.32542 -0.11256,-0.004 -0.110573,-0.73124 z M 172.54803,112.78125 c 0,-0.80036 0.0496,-1.12778 0.11022,-0.7276 0.0606,0.40018 0.0606,1.05502 0,1.45521 -0.0606,0.40018 -0.11022,0.0728 -0.11022,-0.72761 z"
         id="path3403" /><path
         style="fill:#2c2c2c;stroke-width:0.264583"
         d="m 68.752085,215.96875 c -1.091406,-0.0931 -1.686719,-0.20223 -1.322916,-0.24255 0.363802,-0.0403 -0.380453,-0.23548 -1.6539,-0.4337 -6.690459,-1.04145 -13.244993,-4.41605 -18.198357,-9.36941 -5.006616,-5.00662 -8.357065,-11.541 -9.365097,-18.26476 -0.20303,-1.35425 -0.384979,-1.98581 -0.457348,-1.5875 -0.0661,0.3638 -0.213832,-0.94588 -0.328292,-2.91042 -0.801995,-13.76494 4.873527,-29.89751 14.624686,-41.57042 2.125924,-2.5449 7.682247,-8.018 7.909357,-7.79088 0.06624,0.0662 -0.192764,1.37095 -0.575559,2.89938 -2.015289,8.04664 -1.976738,16.07391 0.114832,23.91123 3.422889,12.8259 12.176851,23.68426 24.005223,29.77592 3.929441,2.02368 5.57345,2.13722 7.49799,0.51782 1.517959,-1.27727 1.814115,-2.36679 1.820653,-6.69794 0.004,-2.6484 -0.09327,-3.94876 -0.31169,-4.16719 -0.174625,-0.17462 -0.918765,-0.31956 -1.653645,-0.32209 -5.140979,-0.0177 -10.256075,-2.91445 -13.416515,-7.59802 -1.380654,-2.04604 -2.678787,-2.9619 -4.216643,-2.97491 -1.406806,-0.0119 -2.085581,-1.83154 -1.037154,-2.78035 0.420576,-0.38062 0.809178,-0.446 1.950612,-0.3282 2.122738,0.21909 3.49704,1.05126 5.990846,3.62759 2.478553,2.56058 4.349744,3.69476 7.207178,4.36847 2.036305,0.4801 4.722312,0.51462 5.26129,0.0676 0.219329,-0.1819 0.599789,-0.99768 0.845473,-1.81285 0.48569,-1.6115 2.071873,-4.22358 3.184858,-5.24473 0.384514,-0.35279 0.699117,-0.91607 0.699117,-1.25173 0,-0.68392 -0.239194,-0.76727 -2.864885,-0.99838 -5.320622,-0.4683 -10.236387,-3.09038 -13.841864,-7.38328 -1.675244,-1.99465 -3.407098,-5.28535 -4.061277,-7.71685 -0.681199,-2.53193 -0.81217,-6.77747 -0.288769,-9.36057 0.553035,-2.72935 1.187937,-4.36835 2.685698,-6.93319 l 1.171578,-2.00626 -0.294109,-1.56561 c -0.326564,-1.73839 -0.161335,-5.61169 0.293878,-6.889 0.262319,-0.73607 0.51416,-0.89078 2.325029,-1.42837 3.839824,-1.13992 4.652721,-1.01018 7.828705,1.24943 l 1.288363,0.91663 H 105 118.43057 l 1.28836,-0.91725 c 1.73687,-1.23656 3.56869,-2.1293 5.748,-2.8013 2.21342,-0.68252 2.87239,-0.69917 3.42675,-0.0866 1.01055,1.11665 1.76075,6.89996 1.27447,9.82489 l -0.2824,1.69862 1.29938,2.27013 c 2.49404,4.35733 3.30666,8.40579 2.75214,13.7112 l -0.16691,1.59682 -1.35445,0.17648 c -0.74495,0.0971 -2.58749,0.58752 -4.09454,1.08989 -11.73354,3.91136 -20.01909,13.24605 -22.70225,25.57687 -0.66476,3.05494 -0.66476,10.05155 0,13.10649 3.09286,14.21365 14.10989,24.76407 28.08817,26.89855 2.08716,0.31871 -1.65426,0.3609 -30.29479,0.34158 -17.971822,-0.0121 -33.569009,-0.0982 -34.660415,-0.19129 z m 74.083325,-0.26459 c -0.62671,-0.2007 -0.61628,-0.21322 0.19844,-0.23821 0.47294,-0.0145 0.8599,0.0927 0.8599,0.23821 0,0.29901 -0.12467,0.29901 -1.05834,0 z m 1.78594,-0.43981 c 0.1819,-0.0734 0.47956,-0.0734 0.66146,0 0.1819,0.0734 0.0331,0.13345 -0.33073,0.13345 -0.3638,0 -0.51263,-0.06 -0.33073,-0.13345 z m 1.33946,-0.27009 c 0.19099,-0.0764 0.4192,-0.067 0.50711,0.0209 0.0879,0.0879 -0.0683,0.15046 -0.34726,0.13897 -0.30823,-0.0127 -0.37092,-0.0754 -0.15985,-0.15985 z m 1.05833,-0.26459 c 0.19099,-0.0764 0.4192,-0.067 0.50712,0.0209 0.0879,0.0879 -0.0684,0.15045 -0.34727,0.13896 -0.30822,-0.0127 -0.37092,-0.0754 -0.15985,-0.15985 z m 1.05833,-0.26458 c 0.191,-0.0764 0.4192,-0.067 0.50712,0.0209 0.0879,0.0879 -0.0683,0.15045 -0.34726,0.13896 -0.30823,-0.0127 -0.37092,-0.0754 -0.15986,-0.15985 z m 2.69544,-0.87759 c 0.21829,-0.14107 0.51594,-0.25648 0.66146,-0.25648 0.14552,0 0.086,0.11541 -0.13229,0.25648 -0.21828,0.14106 -0.51594,0.25648 -0.66146,0.25648 -0.14552,0 -0.086,-0.11542 0.13229,-0.25648 z m 1.60955,-0.62963 c 0.2699,-0.24596 2.88837,-1.48219 2.88837,-1.36366 0,0.14918 -2.52676,1.46412 -2.81342,1.46412 -0.10186,0 -0.13558,-0.0452 -0.075,-0.10046 z m 3.68212,-1.8338 c 0,-0.0616 0.50602,-0.44581 1.12448,-0.8537 0.61846,-0.40788 0.98481,-0.57253 0.81409,-0.36588 -0.32826,0.39736 -1.93857,1.41043 -1.93857,1.21958 z m 2.38125,-1.57532 c 0,-0.0583 0.50602,-0.50816 1.12448,-0.99966 0.61846,-0.49149 0.95646,-0.68445 0.7511,-0.4288 -0.3868,0.48153 -1.87558,1.61541 -1.87558,1.42846 z m 3.96875,-3.50188 c 0.93748,-0.94588 1.76404,-1.71979 1.8368,-1.71979 0.0728,0 -0.63474,0.77391 -1.57222,1.71979 -0.93747,0.94589 -1.76403,1.71979 -1.83679,1.71979 -0.0728,0 0.63473,-0.7739 1.57221,-1.71979 z m 2.63451,-2.97656 c 0.4915,-0.61846 0.94135,-1.12448 0.99966,-1.12448 0.18695,0 -0.94693,1.48878 -1.42846,1.87558 -0.25565,0.20536 -0.0627,-0.13264 0.4288,-0.7511 z m 1.46952,-2.01795 c 0.25011,-0.38171 0.50477,-0.69403 0.56592,-0.69403 0.19139,0 -0.42463,1.0197 -0.73007,1.20847 -0.15983,0.0988 -0.086,-0.13272 0.16415,-0.51444 z m 0.92305,-1.48778 c 0.15576,-0.29104 0.34274,-0.52917 0.4155,-0.52917 0.0728,0 0.005,0.23813 -0.15091,0.52917 -0.15576,0.29104 -0.34274,0.52917 -0.4155,0.52917 -0.0728,0 -0.005,-0.23813 0.15091,-0.52917 z m 1.245,-2.24156 c 0.39054,-0.7963 0.75443,-1.40345 0.80866,-1.34923 0.11886,0.11886 -1.21569,2.79704 -1.39378,2.79704 -0.0687,0 0.19457,-0.65151 0.58512,-1.44781 z m 1.40894,-3.1824 c 0,-0.14552 0.11541,-0.44317 0.25648,-0.66146 0.14107,-0.21828 0.25648,-0.27781 0.25648,-0.13229 0,0.14552 -0.11541,0.44318 -0.25648,0.66146 -0.14107,0.21828 -0.25648,0.27781 -0.25648,0.13229 z m -48.493,-2.1596 c 0.1819,-0.0734 0.47956,-0.0734 0.66146,0 0.1819,0.0734 0.0331,0.13345 -0.33073,0.13345 -0.3638,0 -0.51263,-0.0601 -0.33073,-0.13345 z m 49.29954,-0.24369 c 0.0127,-0.30823 0.0754,-0.37092 0.15985,-0.15986 0.0764,0.191 0.067,0.4192 -0.0209,0.50712 -0.0879,0.0879 -0.15045,-0.0683 -0.13896,-0.34726 z m -50.34133,-0.0264 c 0.19099,-0.0764 0.4192,-0.067 0.50712,0.0209 0.0879,0.0879 -0.0684,0.15045 -0.34727,0.13896 -0.30823,-0.0127 -0.37092,-0.0754 -0.15985,-0.15985 z m 2.38125,0 c 0.19099,-0.0764 0.4192,-0.067 0.50712,0.0209 0.0879,0.0879 -0.0684,0.15045 -0.34727,0.13896 -0.30823,-0.0127 -0.37092,-0.0754 -0.15985,-0.15985 z m -4.33266,-1.20832 -0.77711,-0.85989 0.8599,0.7771 c 0.80154,0.72437 0.98151,0.94269 0.7771,0.94269 -0.0455,0 -0.43249,-0.38696 -0.85989,-0.8599 z m 5.72723,0.75896 c 0.26955,-0.24678 3.41754,-1.74497 3.41754,-1.62647 0,0.14836 -3.05666,1.72741 -3.34385,1.72741 -0.10116,0 -0.13432,-0.0454 -0.0737,-0.10094 z m 46.83009,-0.58257 c 0.0127,-0.30822 0.0754,-0.37092 0.15985,-0.15985 0.0764,0.19099 0.067,0.4192 -0.0209,0.50712 -0.0879,0.0879 -0.15045,-0.0684 -0.13896,-0.34727 z m 0.26458,-1.05833 c 0.0127,-0.30823 0.0754,-0.37092 0.15985,-0.15985 0.0764,0.19099 0.067,0.4192 -0.0209,0.50711 -0.0879,0.0879 -0.15046,-0.0683 -0.13897,-0.34726 z m -43.28026,-0.30226 c 0.14552,-0.13885 0.74083,-0.51989 1.32292,-0.84673 0.58208,-0.32685 0.82021,-0.39636 0.52916,-0.15448 -0.59114,0.49131 -2.2673,1.39741 -1.85208,1.00121 z m 43.56573,-0.86632 c 0,-0.3638 0.0601,-0.51263 0.13345,-0.33073 0.0734,0.1819 0.0734,0.47956 0,0.66146 -0.0734,0.1819 -0.13345,0.0331 -0.13345,-0.33073 z m -54.43093,-6.87916 c 0,-3.71079 0.0372,-5.22883 0.0827,-3.37344 0.0455,1.85539 0.0455,4.89148 0,6.74687 -0.0455,1.85539 -0.0827,0.33735 -0.0827,-3.37343 z m 54.65374,4.98298 c 0,-0.96342 0.1155,-0.92851 0.3647,0.11024 0.10362,0.43195 0.065,0.72761 -0.0951,0.72761 -0.14829,0 -0.26962,-0.37703 -0.26962,-0.83785 z m -39.6875,0.22581 c 0,-0.0654 0.4371,-0.4523 0.97133,-0.85977 0.53423,-0.40748 0.88781,-0.60575 0.78575,-0.4406 -0.20935,0.33873 -1.75708,1.48416 -1.75708,1.30037 z m 5.05416,-4.42162 c 1.68837,-1.66988 3.57533,-3.63145 4.19324,-4.35905 1.03202,-1.21524 1.05135,-1.22644 0.23751,-0.13765 -1.25977,1.68538 -3.99989,4.55206 -5.88712,6.15902 -0.88738,0.75559 -0.23201,0.008 1.45637,-1.66232 z M 143.1,175.75208 c 0.31086,-0.43656 0.62473,-0.79375 0.69749,-0.79375 0.0728,0 -0.12205,0.35719 -0.43291,0.79375 -0.31086,0.43656 -0.62473,0.79375 -0.69749,0.79375 -0.0728,0 0.12205,-0.35719 0.43291,-0.79375 z m -26.15198,-2.11666 c 0,-0.36381 0.0601,-0.51263 0.13346,-0.33073 0.0734,0.1819 0.0734,0.47955 0,0.66145 -0.0734,0.18191 -0.13346,0.0331 -0.13346,-0.33072 z m 28.02365,-0.66146 c 0.32684,-0.58209 0.70788,-1.1774 0.84673,-1.32292 0.3962,-0.41522 -0.5099,1.26094 -1.00121,1.85208 -0.24188,0.29105 -0.17237,0.0529 0.15448,-0.52916 z m -29.23904,-2.70057 c -0.14358,-0.37708 -0.11319,-0.40747 0.14812,-0.14811 0.18082,0.17947 0.26211,0.39297 0.18065,0.47443 -0.0815,0.0815 -0.22941,-0.0654 -0.32877,-0.32632 z m 31.25819,-0.9962 c 0.39054,-0.7963 0.75444,-1.40345 0.80866,-1.34923 0.11887,0.11886 -1.21568,2.79704 -1.39377,2.79704 -0.0687,0 0.19457,-0.65152 0.58511,-1.44781 z m -32.5722,-0.93344 c -0.55488,-0.72761 -1.10239,-1.32292 -1.21669,-1.32292 -0.1143,0 -0.27894,-0.20836 -0.36587,-0.46302 -0.17038,-0.49913 2.08596,1.8795 2.5098,2.64583 0.45161,0.81652 0.1087,0.49853 -0.92724,-0.85989 z m 33.71657,-1.45521 c 0,-0.14552 0.11541,-0.44318 0.25647,-0.66146 0.14107,-0.21828 0.25648,-0.27781 0.25648,-0.13229 0,0.14552 -0.11541,0.44318 -0.25648,0.66146 -0.14106,0.21828 -0.25647,0.27781 -0.25647,0.13229 z m -35.46227,-1.39725 c 0,-0.38579 1.05459,-0.67172 1.89131,-0.51279 0.442,0.084 0.35016,0.12862 -0.31704,0.15422 -0.5166,0.0198 -1.08215,0.1789 -1.25677,0.35353 -0.24126,0.24125 -0.3175,0.24246 -0.3175,0.005 z m 35.99143,0.0743 c 0,-0.14552 0.11542,-0.44317 0.25648,-0.66145 0.14107,-0.21829 0.25648,-0.27782 0.25648,-0.1323 0,0.14553 -0.11541,0.44318 -0.25648,0.66146 -0.14106,0.21828 -0.25648,0.27781 -0.25648,0.13229 z m -32.48067,-0.84481 c 0.25743,-0.0671 0.61462,-0.0627 0.79375,0.01 0.17913,0.0725 -0.0315,0.12736 -0.46806,0.12197 -0.43656,-0.005 -0.58312,-0.0647 -0.32569,-0.13177 z m 1.45017,-0.25646 c 0.1819,-0.0734 0.47956,-0.0734 0.66146,0 0.1819,0.0734 0.0331,0.13346 -0.33073,0.13346 -0.3638,0 -0.51263,-0.0601 -0.33073,-0.13346 z m 2.31511,-0.61852 c 0.72736,-0.31255 1.14511,-0.31255 0.66146,0 -0.21829,0.14107 -0.57547,0.24994 -0.79375,0.24194 -0.26169,-0.01 -0.21663,-0.092 0.13229,-0.24194 z m 1.45521,-0.52916 c 0.21828,-0.14107 0.51593,-0.25648 0.66145,-0.25648 0.14552,0 0.086,0.11541 -0.13229,0.25648 -0.21828,0.14106 -0.51593,0.25648 -0.66146,0.25648 -0.14552,0 -0.086,-0.11542 0.1323,-0.25648 z m 1.5875,-0.59315 c 0.0728,-0.0807 0.96572,-0.69369 1.98437,-1.36219 1.01865,-0.66849 1.46817,-0.88284 0.99895,-0.47632 -0.7331,0.63512 -3.35523,2.25104 -2.98332,1.83851 z m 27.00838,-1.14869 c 0.0127,-0.30823 0.0754,-0.37092 0.15985,-0.15986 0.0764,0.191 0.067,0.4192 -0.0209,0.50712 -0.0879,0.0879 -0.15045,-0.0684 -0.13897,-0.34726 z m -21.99236,-2.55764 c 1.09642,-1.16819 1.33398,-1.37824 1.33398,-1.17957 0,0.0425 -0.56555,0.60801 -1.25678,1.25677 l -1.25677,1.17957 z m 22.78611,-0.61736 c 0.0127,-0.30823 0.0754,-0.37092 0.15985,-0.15986 0.0764,0.191 0.067,0.4192 -0.0209,0.50712 -0.0879,0.0879 -0.15045,-0.0683 -0.13897,-0.34726 z m 0.28547,-1.16858 c 0,-0.3638 0.0601,-0.51263 0.13346,-0.33073 0.0734,0.1819 0.0734,0.47956 0,0.66146 -0.0734,0.1819 -0.13346,0.0331 -0.13346,-0.33073 z m -20.51794,-1.45521 c 0.6685,-1.01864 1.28148,-1.91161 1.36219,-1.98437 0.41253,-0.3719 -1.20339,2.25022 -1.83851,2.98332 -0.40652,0.46922 -0.19218,0.0197 0.47632,-0.99895 z m 20.78253,-0.13229 c 0,-0.3638 0.06,-0.51263 0.13345,-0.33073 0.0734,0.1819 0.0734,0.47956 0,0.66146 -0.0734,0.1819 -0.13345,0.0331 -0.13345,-0.33073 z m 0.28953,-1.98438 c 0.003,-0.58208 0.0571,-0.78905 0.1204,-0.45993 0.0633,0.32912 0.0609,0.80537 -0.005,1.05833 -0.0662,0.25297 -0.11801,-0.0163 -0.11507,-0.5984 z m -19.3732,-0.79375 c 0,-0.14552 0.11541,-0.44317 0.25648,-0.66145 0.14106,-0.21828 0.25647,-0.27782 0.25647,-0.1323 0,0.14553 -0.11541,0.44318 -0.25647,0.66146 -0.14107,0.21828 -0.25648,0.27782 -0.25648,0.13229 z m 0.54371,-1.32291 c 0.0275,-0.50118 0.46851,-1.3451 0.48387,-0.92604 0.008,0.21828 -0.10087,0.57547 -0.24194,0.79375 -0.14106,0.21828 -0.24993,0.27781 -0.24193,0.13229 z m 19.00722,-4.89479 c -0.12829,-4.34266 -0.26871,-5.6613 -0.88705,-8.33013 -1.55307,-6.70316 -4.66241,-13.43763 -8.38749,-18.16628 -0.41772,-0.53026 -0.75857,-1.06604 -0.75743,-1.19062 0.001,-0.12459 1.23604,-0.61937 2.74421,-1.09953 5.84319,-1.86029 10.10704,-5.93499 12.15685,-11.61754 3.19919,-8.868905 -0.61622,-18.789312 -8.92326,-23.201241 -1.69982,-0.902786 -0.85124,-0.899624 1.86138,0.0069 8.05634,2.692434 15.27009,8.997563 19.13153,16.721781 1.23147,2.46337 2.63336,6.86224 3.02886,9.50397 0.20092,1.34209 0.39488,2.03731 0.46142,1.6539 0.26652,-1.53583 0.48907,5.82895 0.23545,7.79165 -0.7691,5.95175 -3.26029,11.98271 -6.89658,16.696 -2.73869,3.54986 -7.57043,7.47827 -11.82086,9.61087 l -1.64498,0.82534 -0.0748,2.97713 c -0.0619,2.4628 -0.10115,2.0858 -0.22724,-2.18224 z"
         id="path3401" /><path
         style="fill:#131313;stroke-width:0.264583"
         d="m 133.70729,215.81846 c -13.97828,-2.13448 -24.99531,-12.6849 -28.08817,-26.89855 -0.66476,-3.05494 -0.66476,-10.05155 0,-13.10649 2.68339,-12.33186 10.9874,-21.68578 22.70225,-25.57258 2.65467,-0.88078 5.25363,-1.43338 5.25363,-1.11704 0,0.79906 -1.86092,4.88754 -3.01211,6.61766 -3.2902,4.94487 -8.45815,8.15212 -14.36247,8.91339 -1.28528,0.16572 -2.60477,0.35141 -2.93219,0.41265 -0.95407,0.17843 -0.73473,1.16004 0.585,2.61805 2.91448,3.21987 3.31589,4.86399 3.32341,13.61222 0.005,5.98334 0.0615,6.87993 0.49152,7.82672 0.60873,1.34012 1.85176,2.40229 3.25284,2.77956 1.35953,0.36609 2.84534,-0.074 6.03942,-1.78901 8.32183,-4.46818 14.94463,-11.03887 19.41048,-19.25775 3.5431,-6.52067 5.31932,-13.12742 5.64194,-20.98546 l 0.16636,-4.05213 1.61196,-0.80868 c 4.21643,-2.11527 9.05811,-6.05594 11.78785,-9.5942 1.56526,-2.02886 3.54955,-5.42406 4.48918,-7.68116 0.97248,-2.336 2.08605,-6.39162 2.38459,-8.68467 0.25881,-1.98795 0.3564,62.89132 0.0991,65.85544 -0.13017,1.49926 -0.23495,1.90338 -0.3705,1.42898 -0.16892,-0.59113 -0.19185,-0.563 -0.21573,0.26459 -0.0375,1.29887 -1.19337,5.89306 -1.98609,7.89388 -3.10813,7.84481 -8.80353,14.01178 -16.42848,17.78872 -3.19613,1.58316 -8.23565,3.12378 -10.41312,3.18335 -0.84421,0.0231 -0.88179,0.0499 -0.30251,0.21539 0.4744,0.13555 0.0703,0.24033 -1.42898,0.3705 -2.90151,0.25191 -4.92222,0.19066 -7.69914,-0.23338 z"
         id="path3399" /></g></g></svg>
